<svg id="Group_130" data-name="Group 130" xmlns="http://www.w3.org/2000/svg" width="50.513" height="27.263" viewBox="0 0 50.513 27.263">
  <path id="Path_184" data-name="Path 184" d="M137.649,154.306c-9.024-.321-17.226-4.3-23.432-12.247a2.959,2.959,0,0,1,.455-4.322,3.028,3.028,0,0,1,4.331.534,25.666,25.666,0,0,0,7.463,6.569,24.5,24.5,0,0,0,31.654-6.143c1.331-1.68,2.714-1.844,3.888-1.412,2.112.778,2.63,3.133,1.132,5.026a31.3,31.3,0,0,1-9.505,8.118A32.052,32.052,0,0,1,137.649,154.306Z" transform="translate(-113.486 -127.043)" fill="#38b7fe"/>
  <path id="Path_185" data-name="Path 185" d="M157.583,114.7a4.3,4.3,0,1,1-8.6.053,4.276,4.276,0,0,1,4.232-4.354A4.226,4.226,0,0,1,157.583,114.7Z" transform="translate(-135.651 -110.398)" fill="#38b7fe"/>
  <path id="Path_186" data-name="Path 186" d="M189.6,114.7a4.31,4.31,0,1,1,4.325,4.334A4.236,4.236,0,0,1,189.6,114.7Z" transform="translate(-161.014 -110.394)" fill="#38b7fe"/>
</svg>
