<svg xmlns="http://www.w3.org/2000/svg" width="214.972" height="33.773" viewBox="0 0 214.972 33.773">
  <g id="Group_1327" data-name="Group 1327" transform="translate(-286.761 -464.19)">
    <path id="Path_829" data-name="Path 829" d="M286.761,468.311a3.351,3.351,0,0,1,3.723-3.723H306.6a3.395,3.395,0,0,1,0,6.789H295.083v6.439h9.506a3.307,3.307,0,0,1,0,6.615h-9.506v6.439h12.4a3.4,3.4,0,0,1,0,6.79H290.484a3.351,3.351,0,0,1-3.723-3.723Z" transform="translate(0 -0.047)" fill="#38b7fe"/>
    <path id="Path_830" data-name="Path 830" d="M321.889,464.19a4.062,4.062,0,0,1,3.9,2.892L331,484.3c.482,1.532.788,2.891,1.007,3.9.132.569.219,1.139.35,1.621h.176c.132-.482.219-1.051.35-1.621.219-1.007.525-2.366,1.007-3.9l5.256-17.39a3.828,3.828,0,0,1,7.491,1.1,3.583,3.583,0,0,1-.219,1.225l-8.1,24.312a6.449,6.449,0,0,1-6.177,4.424,6.532,6.532,0,0,1-6.132-4.424l-8.016-23.961a4.582,4.582,0,0,1-.22-1.314A4.1,4.1,0,0,1,321.889,464.19Z" transform="translate(-3.636 0)" fill="#38b7fe"/>
    <path id="Path_831" data-name="Path 831" d="M356.226,468.311a3.351,3.351,0,0,1,3.723-3.723h16.12a3.395,3.395,0,0,1,0,6.789H364.548v6.439h9.506a3.307,3.307,0,0,1,0,6.615h-9.506v6.439h12.4a3.4,3.4,0,0,1,0,6.79h-17a3.351,3.351,0,0,1-3.723-3.723Z" transform="translate(-8.144 -0.047)" fill="#38b7fe"/>
    <path id="Path_832" data-name="Path 832" d="M388.824,469.885a5.683,5.683,0,0,1,10.557-2.936l8.76,14.543a26.98,26.98,0,0,1,1.884,3.768h.219V468a3.833,3.833,0,0,1,7.665,0v24.617a5.358,5.358,0,0,1-9.943,2.76l-9.2-15.156a21.286,21.286,0,0,1-1.971-3.855h-.219v17.741a3.877,3.877,0,0,1-7.753,0Z" transform="translate(-11.966 0)" fill="#38b7fe"/>
    <path id="Path_833" data-name="Path 833" d="M429.317,464.588h21.025a3.329,3.329,0,1,1,0,6.658h-6.307v22.56a4.205,4.205,0,0,1-8.411,0v-22.56h-6.307a3.329,3.329,0,1,1,0-6.658Z" transform="translate(-16.323 -0.047)" fill="#38b7fe"/>
    <path id="Path_834" data-name="Path 834" d="M454.439,492.925l8.323-24.092a6.939,6.939,0,0,1,13.1,0l8.236,23.829a4.587,4.587,0,0,1,.219,1.315,4,4,0,0,1-7.8,1.225l-1.445-4.6H463.156l-1.446,4.687a3.824,3.824,0,1,1-7.271-2.366Zm18.573-8.8-2.1-6.7c-.663-2.123-1.056-3.658-1.532-5.563h-.526c-.476,1.9-.869,3.44-1.532,5.563l-2.1,6.7Z" transform="translate(-19.633 0)" fill="#38b7fe"/>
    <path id="Path_835" data-name="Path 835" d="M488.511,464.588h21.025a3.329,3.329,0,1,1,0,6.658h-6.307v22.56a4.205,4.205,0,0,1-8.41,0v-22.56h-6.308a3.329,3.329,0,1,1,0-6.658Z" transform="translate(-23.264 -0.047)" fill="#38b7fe"/>
    <path id="Path_836" data-name="Path 836" d="M520.758,468.4a4.205,4.205,0,1,1,8.41,0v25.363a4.205,4.205,0,0,1-8.41,0Z" transform="translate(-27.435 0)" fill="#38b7fe"/>
  </g>
</svg>
