<svg xmlns="http://www.w3.org/2000/svg" width="287.344" height="189" viewBox="0 0 287.344 189">
  <g id="Group_1328" data-name="Group 1328" transform="translate(-520.001 -419)">
    <g id="Group_130" data-name="Group 130" transform="translate(562 419)">
      <path id="Path_184" data-name="Path 184" d="M210.927,206.613c-36.389-1.294-69.467-17.325-94.491-49.387-4.565-5.85-3.738-12.9,1.836-17.429a12.21,12.21,0,0,1,17.466,2.152c8.441,10.684,18.214,19.738,30.1,26.489,43.406,24.659,96.56,14.468,127.65-24.772,5.366-6.774,10.943-7.437,15.677-5.694,8.517,3.138,10.607,12.632,4.565,20.266a126.229,126.229,0,0,1-38.33,32.735C256.586,201.327,236.447,206.483,210.927,206.613Z" transform="translate(-113.486 -96.67)" fill="#fff"/>
      <path id="Path_185" data-name="Path 185" d="M183.659,127.745c.033,10.057-7.311,17.432-17.416,17.487a17.032,17.032,0,0,1-17.258-17.272A17.243,17.243,0,0,1,166.049,110.4,17.042,17.042,0,0,1,183.659,127.745Z" transform="translate(-95.215 -110.39)" fill="#fff"/>
      <path id="Path_186" data-name="Path 186" d="M189.6,127.76a17.381,17.381,0,1,1,17.44,17.479A17.081,17.081,0,0,1,189.6,127.76Z" transform="translate(-74.31 -110.394)" fill="#fff"/>
    </g>
    <g id="Group_1327" data-name="Group 1327" transform="translate(233.24 98.667)">
      <path id="Path_829" data-name="Path 829" d="M286.761,469.565c0-3.221,1.756-4.977,4.977-4.977h21.546a4.538,4.538,0,0,1,0,9.075h-15.4v8.607h12.707a4.421,4.421,0,0,1,0,8.841H297.884v8.607h16.57a4.538,4.538,0,0,1,0,9.076H291.738c-3.221,0-4.977-1.757-4.977-4.977Z" transform="translate(0 0.072)" fill="#fff"/>
      <path id="Path_830" data-name="Path 830" d="M323.275,464.19a5.43,5.43,0,0,1,5.212,3.865l6.966,23.01c.644,2.048,1.054,3.864,1.346,5.211.176.761.293,1.522.468,2.166h.235c.176-.644.293-1.405.468-2.166.293-1.346.7-3.162,1.346-5.211l7.025-23.245a5.117,5.117,0,0,1,10.013,1.464,4.789,4.789,0,0,1-.293,1.638l-10.832,32.5a8.62,8.62,0,0,1-8.256,5.914,8.731,8.731,0,0,1-8.2-5.914l-10.715-32.027a6.125,6.125,0,0,1-.294-1.756A5.485,5.485,0,0,1,323.275,464.19Z" transform="translate(5.58 0)" fill="#fff"/>
      <path id="Path_831" data-name="Path 831" d="M356.226,469.565c0-3.221,1.756-4.977,4.976-4.977h21.547a4.538,4.538,0,0,1,0,9.075h-15.4v8.607h12.707a4.421,4.421,0,0,1,0,8.841H367.349v8.607h16.57a4.538,4.538,0,0,1,0,9.076H361.2c-3.22,0-4.976-1.757-4.976-4.977Z" transform="translate(12.5 0.072)" fill="#fff"/>
      <path id="Path_832" data-name="Path 832" d="M388.824,471.8a7.6,7.6,0,0,1,14.111-3.924l11.71,19.44a36.067,36.067,0,0,1,2.518,5.036h.293V469.285a5.123,5.123,0,0,1,10.245,0V502.19a7.162,7.162,0,0,1-13.29,3.689l-12.3-20.258a28.453,28.453,0,0,1-2.635-5.153h-.293v23.713a5.182,5.182,0,0,1-10.363,0Z" transform="translate(18.366 0)" fill="#fff"/>
      <path id="Path_833" data-name="Path 833" d="M430.438,464.588h28.1a4.45,4.45,0,1,1,0,8.9h-8.431v30.155a5.621,5.621,0,0,1-11.242,0V473.487h-8.431a4.45,4.45,0,1,1,0-8.9Z" transform="translate(25.053 0.072)" fill="#fff"/>
      <path id="Path_834" data-name="Path 834" d="M454.513,502.6l11.125-32.2a9.275,9.275,0,0,1,17.506,0l11.009,31.851a6.13,6.13,0,0,1,.293,1.758,5.342,5.342,0,0,1-10.422,1.638L482.09,499.5H466.165l-1.933,6.266a5.112,5.112,0,1,1-9.719-3.162Zm24.826-11.768-2.812-8.959c-.886-2.838-1.411-4.89-2.048-7.436h-.7c-.636,2.544-1.161,4.6-2.048,7.436l-2.811,8.959Z" transform="translate(30.133 0)" fill="#fff"/>
      <path id="Path_835" data-name="Path 835" d="M489.632,464.588h28.1a4.45,4.45,0,1,1,0,8.9H509.3v30.155a5.621,5.621,0,0,1-11.241,0V473.487h-8.432a4.45,4.45,0,1,1,0-8.9Z" transform="translate(35.705 0.072)" fill="#fff"/>
      <path id="Path_836" data-name="Path 836" d="M520.758,469.811a5.621,5.621,0,1,1,11.241,0v33.9a5.621,5.621,0,0,1-11.241,0Z" transform="translate(42.106 0)" fill="#fff"/>
    </g>
  </g>
</svg>
