<svg xmlns="http://www.w3.org/2000/svg" xmlns:xlink="http://www.w3.org/1999/xlink" width="173.998" height="50.152" viewBox="0 0 173.998 50.152"><defs><linearGradient id="linear-gradient" x1="0.186" x2="2.125" y2="0.942" gradientUnits="objectBoundingBox"><stop offset="0" stop-color="#ff3656"></stop><stop offset="1" stop-color="#ff7e62"></stop></linearGradient></defs><g id="Group_6782" data-name="Group 6782" transform="translate(4269 3472)"><g id="Group_3" data-name="Group 3" transform="translate(-4213.213 -3469.109)"><g id="Group_1" data-name="Group 1"><path id="Path_1" data-name="Path 1" d="M-134.74,258.611V243.3a2.091,2.091,0,0,1,.552-1.547,1.986,1.986,0,0,1,1.473-.552,2.057,2.057,0,0,1,1.446.543,2.036,2.036,0,0,1,.58,1.565v5.718h8.489v-5.718a2.091,2.091,0,0,1,.552-1.547,1.986,1.986,0,0,1,1.473-.552,2.057,2.057,0,0,1,1.446.543,2.036,2.036,0,0,1,.58,1.565v15.312a2.091,2.091,0,0,1-.552,1.547,1.986,1.986,0,0,1-1.473.552,2.057,2.057,0,0,1-1.446-.543,2.036,2.036,0,0,1-.58-1.565v-5.874h-8.489v5.874a2.091,2.091,0,0,1-.552,1.547,1.986,1.986,0,0,1-1.473.552,2.057,2.057,0,0,1-1.446-.543A2.022,2.022,0,0,1-134.74,258.611Z" transform="translate(134.74 -241.034)" fill="#222"></path><path id="Path_2" data-name="Path 2" d="M-114.727,257.924l5.423-14.667a3.637,3.637,0,0,1,1.142-1.63,2.783,2.783,0,0,1,1.768-.608,2.725,2.725,0,0,1,1.8.608,3.528,3.528,0,0,1,1.077,1.63l5.285,14.667.166.543.055.46a1.675,1.675,0,0,1-.543,1.3,1.909,1.909,0,0,1-1.317.488,2.091,2.091,0,0,1-1.3-.378,1.894,1.894,0,0,1-.672-1.022l-.81-2.532h-7.522l-.81,2.5a2.12,2.12,0,0,1-.663,1.04,1.965,1.965,0,0,1-1.28.387,2.061,2.061,0,0,1-1.39-.525,1.712,1.712,0,0,1-.608-1.363l.083-.589Zm8.351-12.7-2.642,7.817h5.147Z" transform="translate(133.169 -241.02)" fill="#222"></path><path id="Path_3" data-name="Path 3" d="M-94.92,258.611V243.3a2.091,2.091,0,0,1,.552-1.547,1.986,1.986,0,0,1,1.473-.552,2.471,2.471,0,0,1,.921.239,2.742,2.742,0,0,1,.783.645l8.572,11.408.055-10.192a2.091,2.091,0,0,1,.552-1.547,1.986,1.986,0,0,1,1.473-.552,2.057,2.057,0,0,1,1.446.543,2.036,2.036,0,0,1,.58,1.565V258.62a2.091,2.091,0,0,1-.552,1.547,1.986,1.986,0,0,1-1.473.552,1.837,1.837,0,0,1-.893-.267,2.334,2.334,0,0,1-.81-.617l-8.572-11.27-.055,10.054a2.091,2.091,0,0,1-.552,1.547,1.986,1.986,0,0,1-1.473.552,2.057,2.057,0,0,1-1.446-.543A2.022,2.022,0,0,1-94.92,258.611Z" transform="translate(131.583 -241.034)" fill="#222"></path><path id="Path_4" data-name="Path 4" d="M-63.908,249.17h4.585c1.584,0,2.375.865,2.375,2.587a9.161,9.161,0,0,1-2.412,6.537,8.338,8.338,0,0,1-6.371,2.578,8.7,8.7,0,0,1-6.7-2.827,10.1,10.1,0,0,1-2.606-7.09,10.13,10.13,0,0,1,2.587-7.09,8.66,8.66,0,0,1,6.712-2.827,11.034,11.034,0,0,1,5.2,1.16c1.473.773,2.21,1.657,2.21,2.642a1.961,1.961,0,0,1-.47,1.344,1.53,1.53,0,0,1-1.2.543,12.566,12.566,0,0,1-2.127-.985,7.964,7.964,0,0,0-3.609-.985,4.448,4.448,0,0,0-3.747,1.768,7.071,7.071,0,0,0-1.344,4.438,7.142,7.142,0,0,0,1.335,4.438,4.442,4.442,0,0,0,3.757,1.768,5.112,5.112,0,0,0,3.2-1.05,3.762,3.762,0,0,0,1.372-3.2h-2.753a1.784,1.784,0,0,1-1.344-.543,1.833,1.833,0,0,1-.543-1.344,1.7,1.7,0,0,1,.543-1.317A1.764,1.764,0,0,1-63.908,249.17Z" transform="translate(130.007 -241.022)" fill="#222"></path><path id="Path_5" data-name="Path 5" d="M-53.14,258.611V243.3a2.091,2.091,0,0,1,.552-1.547,1.986,1.986,0,0,1,1.473-.552,2.057,2.057,0,0,1,1.446.543,2.036,2.036,0,0,1,.58,1.565V258.62a2.091,2.091,0,0,1-.552,1.547,1.986,1.986,0,0,1-1.473.552,2.057,2.057,0,0,1-1.446-.543A2.022,2.022,0,0,1-53.14,258.611Z" transform="translate(128.271 -241.034)" fill="#222"></path><path id="Path_6" data-name="Path 6" d="M-45.88,258.611V243.3a2.091,2.091,0,0,1,.552-1.547,1.986,1.986,0,0,1,1.473-.552,2.471,2.471,0,0,1,.921.239,2.742,2.742,0,0,1,.783.645l8.572,11.408.055-10.192a2.091,2.091,0,0,1,.552-1.547A1.986,1.986,0,0,1-31.5,241.2a2.057,2.057,0,0,1,1.446.543,2.036,2.036,0,0,1,.58,1.565V258.62a2.091,2.091,0,0,1-.552,1.547,1.986,1.986,0,0,1-1.473.552,1.837,1.837,0,0,1-.893-.267,2.334,2.334,0,0,1-.81-.617l-8.572-11.27-.055,10.054a2.091,2.091,0,0,1-.552,1.547,1.986,1.986,0,0,1-1.473.552,2.057,2.057,0,0,1-1.446-.543A2.022,2.022,0,0,1-45.88,258.611Z" transform="translate(127.695 -241.034)" fill="#222"></path><path id="Path_7" data-name="Path 7" d="M-14.868,249.17h4.585c1.584,0,2.375.865,2.375,2.587a9.161,9.161,0,0,1-2.412,6.537,8.338,8.338,0,0,1-6.371,2.578,8.7,8.7,0,0,1-6.7-2.827A10.1,10.1,0,0,1-26,250.956a10.13,10.13,0,0,1,2.587-7.09A8.66,8.66,0,0,1-16.7,241.04a11.034,11.034,0,0,1,5.2,1.16c1.473.773,2.21,1.657,2.21,2.642a1.961,1.961,0,0,1-.47,1.344,1.53,1.53,0,0,1-1.2.543,12.566,12.566,0,0,1-2.127-.985,7.964,7.964,0,0,0-3.609-.985,4.448,4.448,0,0,0-3.747,1.768,7.071,7.071,0,0,0-1.344,4.438,7.142,7.142,0,0,0,1.335,4.438,4.442,4.442,0,0,0,3.757,1.768,5.112,5.112,0,0,0,3.2-1.05,3.762,3.762,0,0,0,1.372-3.2h-2.753a1.784,1.784,0,0,1-1.344-.543,1.833,1.833,0,0,1-.543-1.344,1.7,1.7,0,0,1,.543-1.317A1.764,1.764,0,0,1-14.868,249.17Z" transform="translate(126.119 -241.022)" fill="#222"></path></g><g id="Group_2" data-name="Group 2" transform="translate(0 24.694)"><path id="Path_8" data-name="Path 8" d="M-134.74,285.445V270.3a2.106,2.106,0,0,1,.543-1.519,2.036,2.036,0,0,1,1.565-.58h4.8A7.015,7.015,0,0,1-122.9,270a6.038,6.038,0,0,1,1.97,4.641,5.947,5.947,0,0,1-1.952,4.64,6.916,6.916,0,0,1-4.788,1.749h-3.02v4.419a2.091,2.091,0,0,1-.552,1.547,1.986,1.986,0,0,1-1.473.552,2.057,2.057,0,0,1-1.446-.543A2.036,2.036,0,0,1-134.74,285.445Zm4.042-13.7v5.718h2.781a2.669,2.669,0,0,0,2.007-.792,2.83,2.83,0,0,0,.764-2.062,2.878,2.878,0,0,0-.764-2.035,2.6,2.6,0,0,0-2.007-.819H-130.7Z" transform="translate(134.74 -267.868)" fill="#222"></path><path id="Path_9" data-name="Path 9" d="M-119.057,284.744l5.423-14.667a3.637,3.637,0,0,1,1.142-1.63,2.784,2.784,0,0,1,1.768-.608,2.725,2.725,0,0,1,1.8.608,3.528,3.528,0,0,1,1.077,1.63l5.285,14.667.166.543.055.46a1.675,1.675,0,0,1-.543,1.3,1.91,1.91,0,0,1-1.317.488,2.091,2.091,0,0,1-1.3-.378,1.894,1.894,0,0,1-.672-1.022l-.81-2.532H-114.5l-.81,2.5a2.121,2.121,0,0,1-.663,1.04,1.965,1.965,0,0,1-1.28.387,2.061,2.061,0,0,1-1.39-.525,1.712,1.712,0,0,1-.608-1.363l.083-.589Zm8.351-12.7-2.642,7.817h5.147Z" transform="translate(133.512 -267.84)" fill="#222"></path><path id="Path_10" data-name="Path 10" d="M-99.25,285.431V270.119a2.091,2.091,0,0,1,.552-1.547,1.986,1.986,0,0,1,1.473-.552,2.471,2.471,0,0,1,.921.239,2.743,2.743,0,0,1,.783.645l8.572,11.408.055-10.192a2.091,2.091,0,0,1,.552-1.547,1.986,1.986,0,0,1,1.473-.552,2.057,2.057,0,0,1,1.446.543,2.036,2.036,0,0,1,.58,1.565V285.44a2.091,2.091,0,0,1-.552,1.547,1.986,1.986,0,0,1-1.473.552,1.837,1.837,0,0,1-.893-.267,2.335,2.335,0,0,1-.81-.617l-8.572-11.27L-95.2,285.44a2.091,2.091,0,0,1-.552,1.547,1.986,1.986,0,0,1-1.473.552A2.057,2.057,0,0,1-98.67,287,2.036,2.036,0,0,1-99.25,285.431Z" transform="translate(131.926 -267.854)" fill="#222"></path><path id="Path_11" data-name="Path 11" d="M-78.55,285.361v-15.1a2.013,2.013,0,0,1,.571-1.51,2.049,2.049,0,0,1,1.51-.571h4.5q4.5,0,6.371,2a10.977,10.977,0,0,1,2.5,3.775,12.407,12.407,0,0,1,.617,4.1,9.256,9.256,0,0,1-2.5,6.777,9.008,9.008,0,0,1-6.712,2.55h-4.714a2.44,2.44,0,0,1-1.473-.488A1.749,1.749,0,0,1-78.55,285.361Zm4.042-13.452v11.758h2.753a4.5,4.5,0,0,0,3.784-1.63,6.523,6.523,0,0,0,1.28-4.162,6.583,6.583,0,0,0-1.335-4.355,4.924,4.924,0,0,0-4.005-1.6h-2.477Z" transform="translate(130.285 -267.867)" fill="#222"></path><path id="Path_12" data-name="Path 12" d="M-59.627,284.744l5.423-14.667a3.637,3.637,0,0,1,1.142-1.63,2.784,2.784,0,0,1,1.768-.608,2.725,2.725,0,0,1,1.8.608,3.528,3.528,0,0,1,1.077,1.63l5.285,14.667.166.543.055.46a1.675,1.675,0,0,1-.543,1.3,1.91,1.91,0,0,1-1.317.488,2.091,2.091,0,0,1-1.3-.378,1.894,1.894,0,0,1-.672-1.022l-.81-2.532h-7.522l-.81,2.5a2.121,2.121,0,0,1-.663,1.04,1.965,1.965,0,0,1-1.28.387,2.061,2.061,0,0,1-1.39-.525,1.712,1.712,0,0,1-.608-1.363l.083-.589Zm8.36-12.7-2.642,7.817h5.147Z" transform="translate(128.8 -267.84)" fill="#222"></path></g></g><g id="Group_6" data-name="Group 6" transform="translate(-4269 -3472)"><g id="Group_5" data-name="Group 5"><g id="Group_4" data-name="Group 4"><path id="Path_13" data-name="Path 13" d="M-173.049,270.568a4.129,4.129,0,0,0,.046.589V288.08h-16.665a5.682,5.682,0,0,1-5.662-5.662V243.609a5.681,5.681,0,0,1,3.25-5.119v32.078a3.18,3.18,0,0,0,3.379,3.379,3.187,3.187,0,0,0,3.388-3.379v-9.889h12.273v9.889Z" transform="translate(195.33 -237.928)" fill="url(#linear-gradient)"></path><path id="Path_14" data-name="Path 14" d="M-158.143,260.25h-5.607v8.406h6.307c2.725,0,4.742-1.648,4.742-4.2C-152.7,261.484-154.81,260.25-158.143,260.25Zm-3.591,3.7c-.589-.847-.552-1.565.046-2.1a1.379,1.379,0,0,1,1.915.12A4.176,4.176,0,0,0-161.734,263.951Zm2.4,1.317a1.243,1.243,0,0,1-.672.709.428.428,0,0,1-.5-.239,1.409,1.409,0,0,1-.129-.773,2.164,2.164,0,0,1,.331-1,1.194,1.194,0,0,1,.433-.424.445.445,0,0,1,.608.184,1.46,1.46,0,0,1,.129.792c0,.009,0,.028-.009.028-.028.009-.037-.009-.046-.028a.445.445,0,0,0-.424-.129.471.471,0,0,0-.387.479A.481.481,0,0,0-159.33,265.268Zm1.9,1.915a1.644,1.644,0,0,1-1.068.166,1.323,1.323,0,0,1-.5-.166.3.3,0,0,1-.157-.387.449.449,0,0,1,.341-.23,1.363,1.363,0,0,0,.193-.009.132.132,0,0,1,.1-.028,4.474,4.474,0,0,1,.5,0c.037,0,.074,0,.092.028.1.009.2.009.295.009a.411.411,0,0,1,.35.212C-157.194,266.925-157.259,267.082-157.434,267.183Zm1.528-1.482a.436.436,0,0,1-.709.184,1.373,1.373,0,0,1-.451-.571.069.069,0,0,1-.009-.046.472.472,0,0,0,.589-.193.47.47,0,0,0-.129-.626.465.465,0,0,0-.608.046c-.009.009-.018.028-.037.028s-.018-.018-.018-.028a1.271,1.271,0,0,1,.157-.819.429.429,0,0,1,.645-.11,1.445,1.445,0,0,1,.506.645,2.167,2.167,0,0,1,.193.893A1.581,1.581,0,0,1-155.905,265.7Zm1.179-1.768a4.041,4.041,0,0,0-2-1.97,1.43,1.43,0,0,1,2.053-.009A1.4,1.4,0,0,1-154.727,263.933Z" transform="translate(192.826 -239.653)" fill="url(#linear-gradient)"></path><path id="Path_15" data-name="Path 15" d="M-144.345,243.552V282.36a5.682,5.682,0,0,1-5.662,5.662h-15.385V272.066h7.5c6.556,0,10.3-4,10.3-9.391,0-6.592-4.576-9.4-10.266-9.4h-7.587v-6.749a3.18,3.18,0,0,0-3.379-3.379,3.18,3.18,0,0,0-3.379,3.379v8.406H-184.47V237.88h34.463A5.69,5.69,0,0,1-144.345,243.552Z" transform="translate(194.469 -237.88)" fill="url(#linear-gradient)"></path></g><path id="Path_16" data-name="Path 16" d="M-156.36,268.022h-6.15V261.08h6.316A2.2,2.2,0,0,1-154,263.271v2.394A2.362,2.362,0,0,1-156.36,268.022Z" transform="translate(192.728 -239.719)" fill="url(#linear-gradient)"></path></g></g></g></svg>