<svg id="Group_554" data-name="Group 554" xmlns="http://www.w3.org/2000/svg" width="67.842" height="67.5" viewBox="0 0 67.842 67.5">
  <path id="Path_811" data-name="Path 811" d="M2144.39,1280.636a22.74,22.74,0,0,1-4-1.612q-10.051-4.449-20.078-8.951a11.018,11.018,0,0,1-6.956-10.7c-.044-8.178-.008-16.357-.017-24.535a18.91,18.91,0,0,1,.214-2.457c.081-.625.269-.8.927-.5,4.46,2.015,8.94,3.985,13.413,5.97q6.672,2.959,13.344,5.918a11.716,11.716,0,0,0,2.49.854c.513.1.711.276.71.849q-.031,17.342-.016,34.685C2144.415,1280.307,2144.4,1280.452,2144.39,1280.636Z" transform="translate(-2113.329 -1213.194)" fill="#fff"/>
  <path id="Path_812" data-name="Path 812" d="M2268.932,1280.252v-.972q0-17-.021-33.99c0-.737.235-.954.9-1.157,3.488-1.07,6.687-2.838,10.044-4.226l.885-.365c0,2.336-.017,4.563.006,6.79a2.753,2.753,0,0,0,2.075,2.641,2.806,2.806,0,0,0,3.129-1.245,3.252,3.252,0,0,0,.44-1.771c-.006-2.766,0-5.533,0-8.3,0-.354-.025-.651.417-.844,4.241-1.857,8.47-3.741,12.768-5.647a9.071,9.071,0,0,1,.432,2.689c0,8.534.091,17.07-.033,25.6a10.6,10.6,0,0,1-6.532,9.979c-6.009,2.79-12.09,5.423-18.143,8.12q-2.491,1.11-4.993,2.2C2269.878,1279.937,2269.433,1280.072,2268.932,1280.252Z" transform="translate(-2232.194 -1212.752)" fill="#fff"/>
  <path id="Path_813" data-name="Path 813" d="M2201.221,1157.953c2.342-1.041,4.614-2.048,6.884-3.061a18.13,18.13,0,0,1,4.454-1.6,10.926,10.926,0,0,1,6.295.778q11.379,5.034,22.735,10.12a10.528,10.528,0,0,1,3.312,2.276c-.077.3-.358.307-.553.394q-5.9,2.633-11.815,5.249a1.223,1.223,0,0,1-1.145.08q-14.833-7-29.68-13.97C2201.577,1158.158,2201.454,1158.081,2201.221,1157.953Z" transform="translate(-2180.479 -1153.136)" fill="#fff"/>
  <path id="Path_814" data-name="Path 814" d="M2168.678,1201.361c-2.429,1.08-4.754,2.128-7.092,3.149a8.373,8.373,0,0,1-7.009-.023q-13.345-5.923-26.679-11.871a3.744,3.744,0,0,1-.345-.2,10.293,10.293,0,0,1,3.46-2.393c2.135-.969,4.287-1.9,6.425-2.863a1.242,1.242,0,0,1,1.156-.011q14.836,7,29.687,13.968A4.677,4.677,0,0,1,2168.678,1201.361Z" transform="translate(-2124.197 -1179.013)" fill="#fff"/>
</svg>
