<svg xmlns="http://www.w3.org/2000/svg" width="79.805" height="67.5" viewBox="0 0 79.805 67.5">
  <g id="Group_555" data-name="Group 555" transform="translate(0)">
    <path id="Path_815" data-name="Path 815" d="M2368.072,1544.832c.282-.082.344-.361.479-.563,1.7-2.521,3.4-5.041,5.063-7.581.3-.459.5-.6,1.059-.306q14.569,7.736,29.171,15.409c.551.29.489.462.161.869q-3.375,4.192-6.707,8.42c-.285.362-.467.391-.865.162q-14.172-8.142-28.362-16.254Z" transform="translate(-2368.072 -1518.614)" fill="#fff"/>
    <path id="Path_816" data-name="Path 816" d="M2418.2,1466.241q7.272-3.573,14.518-7.134,7.189-3.537,14.372-7.086a1.18,1.18,0,0,1,1.157-.081q14.444,6.848,28.913,13.665c-.106.329-.425.369-.654.495q-14.088,7.737-28.179,15.469a1.212,1.212,0,0,1-1.332,0q-13.993-7.415-28-14.8A1.779,1.779,0,0,1,2418.2,1466.241Z" transform="translate(-2407.741 -1451.822)" fill="#fff"/>
    <path id="Path_817" data-name="Path 817" d="M2404.056,1625.337a1.96,1.96,0,0,1,.917.4q9.628,5.5,19.251,11.015c1.814,1.038,2.716.859,4.012-.771,1.921-2.418,3.848-4.831,5.862-7.359v28.005c-1.7-.889-3.342-1.746-4.984-2.613q-12.174-6.431-24.354-12.853a1.128,1.128,0,0,1-.721-1.178C2404.069,1635.121,2404.056,1630.257,2404.056,1625.337Z" transform="translate(-2396.533 -1589.128)" fill="#fff"/>
    <path id="Path_818" data-name="Path 818" d="M2571.059,1628.376l5.927,7.431c1.188,1.491,2.156,1.673,3.841.71q9.731-5.564,19.461-11.131c.218-.124.443-.237.761-.407v.786q0,6.674,0,13.348c0,.393.007.708-.447.955q-14.717,8.041-29.413,16.123a.762.762,0,0,1-.132.03Z" transform="translate(-2528.699 -1588.845)" fill="#fff"/>
    <path id="Path_819" data-name="Path 819" d="M2576.6,1549.652l11.57-6.344q9.071-4.975,18.133-9.966c.564-.312.784-.237,1.115.3,1.734,2.8,3.509,5.581,5.285,8.357.249.388.3.58-.18.857q-13.958,7.956-27.894,15.952c-.268.153-.483.337-.779-.037C2581.45,1555.73,2579.033,1552.709,2576.6,1549.652Z" transform="translate(-2533.081 -1516.185)" fill="#fff"/>
  </g>
</svg>
