<svg xmlns="http://www.w3.org/2000/svg" width="93.24" height="65.5" viewBox="0 0 93.24 65.5">
  <path id="group_FILL1_wght400_GRAD0_opsz48" d="M1.9,74.45V64.535a12.285,12.285,0,0,1,1.9-6.7,11.554,11.554,0,0,1,5.274-4.483A83.623,83.623,0,0,1,22.942,48.5a54.419,54.419,0,0,1,12.71-1.477A53.754,53.754,0,0,1,48.309,48.5a84.337,84.337,0,0,1,13.817,4.852,11.872,11.872,0,0,1,5.327,4.483,12.04,12.04,0,0,1,1.951,6.7V74.45Zm73.833,0V64.535a17.072,17.072,0,0,0-3.375-10.917A24.7,24.7,0,0,0,63.5,46.71a104.6,104.6,0,0,1,13.712,2.479,48.33,48.33,0,0,1,10.442,3.744,16.325,16.325,0,0,1,5.485,4.957,11.564,11.564,0,0,1,2,6.645V74.45ZM35.652,40.593A15.174,15.174,0,0,1,19.831,24.771,15.174,15.174,0,0,1,35.652,8.95,15.174,15.174,0,0,1,51.473,24.771,15.174,15.174,0,0,1,35.652,40.593ZM73.623,24.771A15.174,15.174,0,0,1,57.8,40.593a23.587,23.587,0,0,1-2.584-.158,11.157,11.157,0,0,1-2.584-.58,17.31,17.31,0,0,0,3.85-6.487,26.417,26.417,0,0,0,1.318-8.6,24.552,24.552,0,0,0-1.318-8.385,22.424,22.424,0,0,0-3.85-6.7,22.259,22.259,0,0,1,2.584-.527A17.775,17.775,0,0,1,57.8,8.95,15.174,15.174,0,0,1,73.623,24.771Z" transform="translate(-1.9 -8.95)" fill="#fff"/>
</svg>
