<svg xmlns="http://www.w3.org/2000/svg" width="65.5" height="65.5" viewBox="0 0 65.5 65.5">
  <path id="monetization_on_FILL1_wght700_GRAD0_opsz48" d="M32.768,57.578h5.157V53.884a12.663,12.663,0,0,0,7.235-2.809,8.358,8.358,0,0,0,2.694-6.658,9.782,9.782,0,0,0-2.309-6.658q-2.309-2.655-7.774-4.887a29.661,29.661,0,0,1-6.273-3.31,4.562,4.562,0,0,1-1.886-3.771A3.835,3.835,0,0,1,31.151,22.6,6.614,6.614,0,0,1,35.308,21.4a7.347,7.347,0,0,1,3.964,1.078,8.12,8.12,0,0,1,2.886,3.387L46.7,23.789a11.851,11.851,0,0,0-3.541-4.772,11.262,11.262,0,0,0-5.08-2V13.476H32.922v3.541a10.308,10.308,0,0,0-6.311,3.156A8.693,8.693,0,0,0,24.455,26.1,8.473,8.473,0,0,0,27,32.525a24.238,24.238,0,0,0,7.851,4.5,21.811,21.811,0,0,1,6.119,3.464A5.17,5.17,0,0,1,42.7,44.417a4.35,4.35,0,0,1-1.77,3.656A7.973,7.973,0,0,1,36,49.42a8.415,8.415,0,0,1-5.234-1.693,8.648,8.648,0,0,1-3.079-4.772l-4.772,1.616a15.379,15.379,0,0,0,4.118,6.157,13.591,13.591,0,0,0,5.734,3ZM35.462,68.2a32.173,32.173,0,0,1-12.738-2.54A32.583,32.583,0,0,1,5.29,48.227,32.173,32.173,0,0,1,2.75,35.489a32.413,32.413,0,0,1,9.544-23.206,33.587,33.587,0,0,1,10.429-7A31.758,31.758,0,0,1,35.462,2.7,31.948,31.948,0,0,1,48.277,5.278,32.786,32.786,0,0,1,65.672,22.673,31.948,31.948,0,0,1,68.25,35.489a31.758,31.758,0,0,1-2.578,12.738,33.587,33.587,0,0,1-7,10.429A32.413,32.413,0,0,1,35.462,68.2Z" transform="translate(-2.75 -2.7)" fill="#fff"/>
</svg>
