<svg id="Group_556" data-name="Group 556" xmlns="http://www.w3.org/2000/svg" width="51.054" height="67.5" viewBox="0 0 51.054 67.5">
  <path id="Path_820" data-name="Path 820" d="M2388.763,1105.276q0-9.4,0-18.79a4.463,4.463,0,0,0-4.825-4.81c-.945,0-1.89-.005-2.835,0-1.057.007-1.179.124-1.184,1.17-.009,1.735.021,3.471-.009,5.208a6.152,6.152,0,0,1-6.277,6.27c-6.922.033-13.845.02-20.766,0a6.079,6.079,0,0,1-3.217-.834,6.157,6.157,0,0,1-3.08-5.484c-.028-1.758,0-3.516-.01-5.274-.008-.9-.152-1.043-1.033-1.056-.967-.015-1.935-.005-2.9,0-3.075.007-4.911,1.849-4.911,4.942q0,24.79,0,49.581c0,2.667,1.006,4.032,3.5,4.769H2385a3.769,3.769,0,0,0,3.2-2.1,5.383,5.383,0,0,0,.572-2.609Q2388.759,1120.771,2388.763,1105.276Zm-26.172,13.994c-2.794,2.8-5.58,5.6-8.387,8.379a2.045,2.045,0,0,1-3.049-.015q-2.095-2.05-4.144-4.146a2.1,2.1,0,1,1,2.981-2.956c.745.714,1.487,1.433,2.186,2.191.369.4.575.464,1,.025,2.1-2.155,4.231-4.276,6.371-6.388a2.1,2.1,0,0,1,3.622.922,3.943,3.943,0,0,1,.066.393A2.176,2.176,0,0,1,2362.591,1119.269Zm.033-16.921q-4.226,4.248-8.475,8.476a2.07,2.07,0,0,1-1.494.6,2.213,2.213,0,0,1-1.515-.677c-1.365-1.366-2.741-2.723-4.094-4.1a2.1,2.1,0,1,1,2.956-2.986c.775.745,1.545,1.5,2.28,2.284.314.337.486.332.81,0q3.214-3.262,6.472-6.477a2.1,2.1,0,0,1,3.614.945A1.965,1.965,0,0,1,2362.624,1102.348Zm15.228,21.734q-4.057.012-8.111,0a2.115,2.115,0,1,1,.02-4.217c1.34-.007,2.682,0,4.022,0,1.363,0,2.725-.007,4.088,0a2.112,2.112,0,1,1-.018,4.215Zm-.1-16.88c-1.34,0-2.682,0-4.022,0-1.319,0-2.637,0-3.956,0a2.118,2.118,0,1,1,.026-4.217q3.99-.007,7.979,0a2.122,2.122,0,1,1-.028,4.219Z" transform="translate(-2337.712 -1073.468)" fill="#fff"/>
  <path id="Path_821" data-name="Path 821" d="M2428.2,1048.875q-5.108,0-10.216,0a2.155,2.155,0,0,1-2.42-2.44q0-3.922,0-7.844a2.137,2.137,0,0,1,2.351-2.376c1.3,0,2.593-.012,3.888.007a.583.583,0,0,0,.634-.4,6.3,6.3,0,0,1,11.563-.013.622.622,0,0,0,.691.414c1.3-.017,2.592-.012,3.888-.005a2.121,2.121,0,0,1,2.3,2.293q.011,4.054,0,8.107a2.109,2.109,0,0,1-2.269,2.258Q2433.411,1048.883,2428.2,1048.875Z" transform="translate(-2402.703 -1032.022)" fill="#fff"/>
</svg>
